<svg width="667" height="498" viewBox="0 0 667 498" fill="none" xmlns="http://www.w3.org/2000/svg">
<path d="M0 437.197H666.667V436.865H0V437.197Z" fill="#E7E7E7"/>
<path d="M122.273 457.369H166.436V457.036H122.273V457.369Z" fill="#E7E7E7"/>
<path d="M82.7053 457.369H108.296V457.036H82.7053V457.369Z" fill="#E7E7E7"/>
<path d="M255.151 462.277H280.74V461.944H255.151V462.277Z" fill="#E7E7E7"/>
<path d="M356.565 469.721H414.156V469.388H356.565V469.721Z" fill="#E7E7E7"/>
<path d="M336.249 469.721H344.693V469.388H336.249V469.721Z" fill="#E7E7E7"/>
<path d="M479.556 462.277H604.457V461.944H479.556V462.277Z" fill="#E7E7E7"/>
<path d="M58.5533 0.603548C54.54 0.603548 51.276 3.86756 51.276 7.88089V369.789C51.276 373.802 54.54 377.066 58.5533 377.066H316.019C320.029 377.066 323.295 373.802 323.295 369.789V7.88089C323.295 3.86756 320.029 0.603548 316.019 0.603548H58.5533ZM316.019 377.4H58.5533C54.3573 377.4 50.9427 373.986 50.9427 369.789V7.88089C50.9427 3.68489 54.3573 0.270215 58.5533 0.270215H316.019C320.213 0.270215 323.628 3.68489 323.628 7.88089V369.789C323.628 373.986 320.213 377.4 316.019 377.4" fill="#E7E7E7"/>
<path d="M346.949 0.603548C342.937 0.603548 339.673 3.86756 339.673 7.88089V369.789C339.673 373.802 342.937 377.066 346.949 377.066H604.415C608.427 377.066 611.692 373.802 611.692 369.789V7.88089C611.692 3.86756 608.427 0.603548 604.415 0.603548H346.949ZM604.415 377.4H346.949C342.755 377.4 339.34 373.986 339.34 369.789V7.88089C339.34 3.68489 342.755 0.270215 346.949 0.270215H604.415C608.611 0.270215 612.025 3.68489 612.025 7.88089V369.789C612.025 373.986 608.611 377.4 604.415 377.4" fill="#E7E7E7"/>
<path d="M356.532 439.283H327.213V322.971H356.532V439.283Z" fill="#E1E1E1"/>
<path d="M350.964 439.283H356.533V423.443H345.125L350.964 439.283Z" fill="#FAFAFA"/>
<path d="M228.059 439.283H198.74V322.971H228.059V439.283Z" fill="#E1E1E1"/>
<path d="M356.532 429.563H223.199V322.971H356.532V429.563Z" fill="#FAFAFA"/>
<path d="M352.212 327.695H227.517V356.927H352.212V327.695ZM351.697 356.411H228.032V328.211H351.697V356.411Z" fill="#E1E1E1"/>
<path d="M228.767 439.283H223.199V423.443H234.606L228.767 439.283Z" fill="#FAFAFA"/>
<path d="M286.917 342.31C286.917 343.939 288.237 345.259 289.865 345.259C291.494 345.259 292.814 343.939 292.814 342.31C292.814 340.681 291.494 339.361 289.865 339.361C288.237 339.361 286.917 340.681 286.917 342.31Z" fill="#E7E7E7"/>
<path d="M352.212 361.649H227.517V390.881H352.212V361.649ZM351.697 390.367H228.032V362.165H351.697V390.367Z" fill="#E1E1E1"/>
<path d="M286.917 376.266C286.917 377.895 288.237 379.215 289.865 379.215C291.494 379.215 292.814 377.895 292.814 376.266C292.814 374.636 291.494 373.318 289.865 373.318C288.237 373.318 286.917 374.636 286.917 376.266Z" fill="#E7E7E7"/>
<path d="M352.212 395.607H227.517V424.839H352.212V395.607ZM351.697 424.323H228.032V396.121H351.697V424.323Z" fill="#E1E1E1"/>
<path d="M286.917 410.223C286.917 411.851 288.237 413.171 289.865 413.171C291.494 413.171 292.814 411.851 292.814 410.223C292.814 408.593 291.494 407.273 289.865 407.273C288.237 407.273 286.917 408.593 286.917 410.223Z" fill="#E7E7E7"/>
<path d="M210.147 439.283H180.828V255.421H210.147V439.283Z" fill="#E1E1E1"/>
<path d="M204.578 439.283H210.147V423.443H198.739L204.578 439.283Z" fill="#FAFAFA"/>
<path d="M100.571 439.283H71.252V255.421H100.571V439.283Z" fill="#E1E1E1"/>
<path d="M210.147 429.563H95.7093V255.421H210.147V429.563Z" fill="#FAFAFA"/>
<path d="M205.827 259.745H100.029V300.387H205.827V259.745ZM205.22 299.779H100.639V260.352H205.22V299.779Z" fill="#E1E1E1"/>
<path d="M205.827 303.964H154.797V409.761H205.827V303.964ZM205.22 409.152H155.405V304.571H205.22V409.152Z" fill="#E1E1E1"/>
<path d="M151.06 303.964H100.031V409.761H151.06V303.964ZM150.452 409.152H100.637V304.571H150.452V409.152Z" fill="#E1E1E1"/>
<path d="M101.279 439.283H95.7107V423.443H107.117L101.279 439.283Z" fill="#FAFAFA"/>
<path d="M149.98 280.065C149.98 281.694 151.3 283.014 152.928 283.014C154.557 283.014 155.877 281.694 155.877 280.065C155.877 278.437 154.557 277.117 152.928 277.117C151.3 277.117 149.98 278.437 149.98 280.065Z" fill="#E7E7E7"/>
<path d="M160.538 354.367C160.538 355.997 161.858 357.317 163.486 357.317C165.115 357.317 166.435 355.997 166.435 354.367C166.435 352.738 165.115 351.418 163.486 351.418C161.858 351.418 160.538 352.738 160.538 354.367Z" fill="#E7E7E7"/>
<path d="M139.422 354.367C139.422 355.997 140.742 357.317 142.37 357.317C143.999 357.317 145.319 355.997 145.319 354.367C145.319 352.738 143.999 351.418 142.37 351.418C140.742 351.418 139.422 352.738 139.422 354.367Z" fill="#E7E7E7"/>
<path d="M136.1 204.158H123.732C123.732 204.158 125.878 215.592 125.878 222.32C125.878 229.048 116.47 255.421 129.916 255.421C143.36 255.421 133.953 229.048 133.953 222.32C133.953 215.592 136.1 204.158 136.1 204.158Z" fill="#E1E1E1"/>
<path d="M89.0709 231.198V239.234C89.0709 248.137 96.3549 255.421 105.259 255.421H113.294C122.198 255.421 129.482 248.137 129.482 239.234V231.198H89.0709Z" fill="#F5F5F5"/>
<path d="M260.889 306.02C260.889 315.342 271.33 322.97 284.093 322.97H295.611C308.373 322.97 318.815 315.342 318.815 306.02H260.889Z" fill="#E1E1E1"/>
<path d="M566.142 292.372C559.155 298.075 549.513 308.518 540.675 323.21C534.791 332.994 531.245 343.244 529.686 356.79C529.721 341.458 529.769 324.984 529.822 309.438C531.597 305.436 535.65 296.216 538.558 288.931C548.259 264.623 551.874 258.646 560.601 237.678C572.238 209.714 584.166 176.53 580.751 179.182C573.791 184.586 547.125 234.52 544.242 241.668C534.327 266.255 531.565 284.176 529.849 301.471C529.903 286.87 529.961 273.46 530.015 263.116C530.194 229.371 530.769 218.48 531.049 215.122C532.127 213.415 533.402 211.426 534.143 210.354C540.407 201.296 542.825 193.58 548.725 180.071C557.09 160.928 564.293 126.942 562.186 128.656C553.419 135.794 546.503 151.139 537.415 170.692C528.329 190.244 530.926 201.49 529.123 218.19C528.745 221.467 528.455 233.834 528.246 250.974C525.89 232.712 521.467 220.679 513.401 209.744C503.478 196.295 493.881 187.21 486.837 182.466C479.793 177.722 498.998 210.759 508.182 225.178C516.361 238.02 523.894 249.351 528.142 260.511C527.918 283.74 527.814 313.156 527.813 340.538C525.706 328.076 522.266 314.659 517.675 304.268C512.162 291.784 503.677 272.636 496.925 266.142C495.302 264.58 503.986 301.822 509.558 311.726C515.131 321.627 519.223 330.959 522.73 336.572C523.549 337.883 526.263 342.932 527.814 345.838C527.83 379.264 527.999 408.759 528.29 418.799H529.734C529.635 416.21 529.619 399.206 529.65 376.7C533.127 364.48 541.081 350.536 547.645 337.814C554.809 323.93 573.129 286.67 566.142 292.372Z" fill="#E1E1E1"/>
<path d="M549.92 439.283H508.128L504.975 398.317H553.075L549.92 439.283Z" fill="#F0F0F0"/>
<path d="M556.189 403.091H501.861L500.305 389.27H557.746L556.189 403.091Z" fill="#F5F5F5"/>
<path d="M165.679 109.728H90.9427V27.6627H165.679V109.728Z" fill="#E1E1E1"/>
<path d="M173.775 109.728H96.5786V27.6627H173.775V109.728Z" fill="#F5F5F5"/>
<path d="M103.044 34.1307H167.307V103.263H103.044V34.1307Z" fill="white"/>
<path d="M118.62 50.8867H151.731V86.5054H118.62V50.8867Z" fill="#F5F5F5"/>
<path d="M546.735 113.465H477.308V37.2294H546.735V113.465Z" fill="#E1E1E1"/>
<path d="M554.253 113.465H482.541V37.2294H554.253V113.465Z" fill="#F5F5F5"/>
<path d="M488.549 43.2374H548.245V107.457H488.549V43.2374Z" fill="white"/>
<path d="M537.022 75.3477C537.022 85.633 528.683 93.9717 518.397 93.9717C508.111 93.9717 499.773 85.633 499.773 75.3477C499.773 65.0623 508.111 56.7237 518.397 56.7237C528.683 56.7237 537.022 65.0623 537.022 75.3477Z" fill="#F5F5F5"/>
<path d="M243.32 137.473H187.879V76.596H243.32V137.473Z" fill="#E1E1E1"/>
<path d="M249.325 137.473H192.059V76.596H249.325V137.473Z" fill="#F5F5F5"/>
<path d="M196.856 81.3934H244.527V132.676H196.856V81.3934Z" fill="white"/>
<path d="M220.691 94.071L207.654 116.654H233.729L220.691 94.071Z" fill="#F5F5F5"/>
<path d="M179.278 243.993C257.325 324.465 359.901 380.263 454.982 290.159C503.995 243.711 568.77 118.247 504.853 60.8362C416.766 -18.2865 366.214 111.176 300.354 128.718C255.211 140.741 217.259 71.4375 163.215 117.712C120.493 154.292 146.833 210.539 179.278 243.993Z" fill="#F5F5F5"/>
<path d="M591.852 481.984C591.852 490.323 476.109 497.082 333.333 497.082C190.557 497.082 74.8156 490.323 74.8156 481.984C74.8156 473.646 190.557 466.887 333.333 466.887C476.109 466.887 591.852 473.646 591.852 481.984Z" fill="#F5F5F5"/>
<path d="M465.66 144.909L452.436 139.546C452.436 139.546 434.983 171.377 429.983 172.984C423.181 175.169 409.113 181.249 400.753 182.388C399.627 183.705 397.768 187.86 397.945 189.374C409.161 193.114 433.8 188.148 439.076 184.23C451.099 175.3 465.66 144.909 465.66 144.909Z" fill="#FF8B7B"/>
<path d="M469.733 137.687C472.194 146.805 458.834 165.122 458.834 165.122L441.285 155.278C441.285 155.278 444.557 147.749 448.562 140.081C455.03 127.697 466.925 127.279 469.733 137.687Z" fill="#007CFF"/>
<g opacity="0.199997">
<g opacity="0.199997">
<path opacity="0.199997" d="M469.733 137.687C472.194 146.805 458.834 165.122 458.834 165.122L441.285 155.278C441.285 155.278 444.557 147.749 448.562 140.081C455.03 127.697 466.925 127.279 469.733 137.687Z" fill="black"/>
</g>
</g>
<g opacity="0.199997">
<g opacity="0.199997">
<path opacity="0.199997" d="M448.283 159.197L455.175 163.061L456.38 141.907C452.379 144.989 449.543 154.265 448.283 159.197Z" fill="black"/>
</g>
</g>
<path d="M458.216 130.817C458.216 130.817 444.589 161.132 452.533 217.586H506.228C507.08 209.344 504.259 169.136 514.485 130.3C514.485 130.3 505.391 128.453 496.644 128.03C489.803 127.7 479.884 127.481 473.82 128.032C465.825 128.757 458.216 130.817 458.216 130.817Z" fill="#007CFF"/>
<g opacity="0.199997">
<g opacity="0.199997">
<path opacity="0.199997" d="M458.216 130.817C458.216 130.817 444.589 161.132 452.533 217.586H506.228C507.08 209.344 504.259 169.136 514.485 130.3C514.485 130.3 505.391 128.453 496.644 128.03C489.803 127.7 479.884 127.481 473.82 128.032C465.825 128.757 458.216 130.817 458.216 130.817Z" fill="black"/>
</g>
</g>
<path d="M445.764 483.189C445.68 484.621 466.038 485.781 491.234 485.781C516.43 485.781 536.922 484.621 537.007 483.189C537.091 481.758 516.734 480.597 491.538 480.597C466.342 480.597 445.847 481.758 445.764 483.189Z" fill="#E7EDF2"/>
<path d="M491.095 468.464L481.54 472.146L473.331 450.885L482.886 447.204L491.095 468.464Z" fill="#FF8B7B"/>
<path d="M524.068 472.939H514.03L510.346 449.691H520.385L524.068 472.939Z" fill="#FF8B7B"/>
<path d="M513.384 471.776H524.663C525.073 471.776 525.412 472.061 525.476 472.463L526.936 481.385C527.088 482.311 526.309 483.187 525.361 483.171C521.428 483.103 519.529 482.872 514.571 482.872C511.519 482.872 505.213 483.189 501 483.189C496.879 483.189 496.48 479.023 498.228 478.644C506.061 476.953 509.112 474.62 511.719 472.393C512.189 471.992 512.784 471.776 513.384 471.776Z" fill="#1A2E35"/>
<path d="M479.964 468.262L490.658 465.152C491.058 465.036 491.47 465.21 491.649 465.567L495.61 473.563C496.022 474.391 495.537 475.431 494.608 475.684C490.734 476.74 488.13 477.403 483.281 478.812C479.932 479.787 476.522 481.374 473.213 482.428C470.92 483.159 465.537 483.188 462.749 483.188C458.628 483.188 457.71 478.844 459.476 478.644C463.945 478.143 464.546 478.376 467.013 477.138C471.093 475.091 474.249 473.396 477.781 469.696C478.398 469.052 479.118 468.507 479.964 468.262Z" fill="#1A2E35"/>
<path d="M402.444 182.292L391.397 177.644L386.851 189.882C386.851 189.882 393.225 191.038 400.505 189.882L402.444 182.292Z" fill="#FF8B7B"/>
<path d="M383.187 177.344L382.895 185.486L386.85 189.882L391.397 177.644L383.187 177.344Z" fill="#FF8B7B"/>
<path d="M473.335 450.891L477.565 461.851L487.124 458.167L482.893 447.207L473.335 450.891Z" fill="#EA7064"/>
<path d="M520.388 449.698H510.347L512.249 461.681H522.292L520.388 449.698Z" fill="#EA7064"/>
<g opacity="0.199997">
<g opacity="0.199997">
<path opacity="0.199997" d="M450.831 202.316C451.024 204.728 451.256 207.194 451.543 209.729L491.469 196.766C497.704 194.904 503.131 190.985 506.829 185.628C506.98 182.065 507.187 178.325 507.487 174.42C507.624 172.514 507.788 170.569 507.967 168.596C508.159 166.541 508.377 164.445 508.625 162.334L450.831 202.316Z" fill="black"/>
</g>
</g>
<path d="M463.866 158.584L462.506 158.421C463.299 151.769 468.266 146.511 473.513 146.635L473.473 148.005C468.943 147.875 464.578 152.617 463.866 158.584Z" fill="white"/>
<path d="M470.97 170.896C470.895 170.896 470.821 170.896 470.746 170.893L470.785 169.523C475.371 169.691 479.678 164.912 480.391 158.945L481.751 159.107C480.97 165.665 476.161 170.896 470.97 170.896Z" fill="white"/>
<path d="M495.891 102.33C494.02 109.674 491.795 123.13 496.644 128.031C496.644 128.031 493.256 135.48 479.611 135.48C467.141 135.48 473.82 128.031 473.82 128.031C482.125 126.076 482.269 119.999 481.177 114.294L495.891 102.33Z" fill="#FF8B7B"/>
<path d="M489.892 107.211L481.184 114.287C481.447 115.638 481.633 117.007 481.649 118.338C484.196 120.874 489.305 114.452 489.828 111.176C490.089 109.543 490.113 107.972 489.892 107.211Z" fill="#EA7064"/>
<path d="M466.219 102.239C467.495 104.526 469.747 105.947 471.875 106.42C475.077 107.134 476.685 104.188 475.801 101.224C475.008 98.5563 472.385 94.971 469.168 95.5857C465.999 96.191 464.759 99.6257 466.219 102.239Z" fill="#EA7064"/>
<path d="M471.501 78.7338C466.515 81.0178 464.757 100.828 471.028 103.758C477.296 106.686 480.948 74.4058 471.501 78.7338Z" fill="#1A2E35"/>
<path d="M497.411 91.278C496.218 101.222 496.023 107.074 490.702 112.178C482.697 119.855 470.689 115.301 468.898 105.375C467.286 96.4407 469.509 81.6794 479.475 77.722C489.293 73.822 498.606 81.334 497.411 91.278Z" fill="#FF8B7B"/>
<path d="M481.031 83.8867C488.407 81.9987 493.837 80.7147 491.898 86.8721C489.318 95.0747 486.223 103.021 490.375 103.391C492.899 103.616 504.102 98.8627 502.679 94.0574C501.441 89.8707 506.647 88.7414 507.607 86.6067C511.065 78.9187 501.185 79.9174 502.945 75.2654C504.657 70.7361 494.986 63.0814 489.627 66.8214C480.953 72.8747 466.047 72.7881 473.885 62.8574C479.497 55.7454 469.482 57.2054 469.482 57.2054C469.482 57.2054 475.531 60.7934 465.35 66.3401C454.559 72.2201 464.438 88.1321 481.031 83.8867Z" fill="#1A2E35"/>
<path d="M501.26 102.239C499.716 104.526 497.298 105.947 495.114 106.42C491.83 107.134 490.566 104.188 491.795 101.224C492.902 98.5563 495.947 94.971 499.091 95.5857C502.188 96.191 503.027 99.6257 501.26 102.239Z" fill="#FF8B7B"/>
<path d="M452.534 217.586C452.534 217.586 443.522 298.249 442.819 328.862C442.087 360.705 473.363 460.055 473.363 460.055L489.378 453.33C489.378 453.33 470.73 362.565 473.321 331.293C476.145 297.201 487.83 217.586 487.83 217.586H452.534Z" fill="#007CFF"/>
<g opacity="0.199997">
<g opacity="0.199997">
<path opacity="0.199997" d="M474.932 239.735C467.752 254.642 472.588 284.115 476.48 301.583C477.96 289.252 479.714 275.866 481.386 263.479C481.222 244.434 479.74 229.734 474.932 239.735Z" fill="black"/>
</g>
</g>
<path d="M488.654 448.1C488.728 448.07 490.552 453.204 490.552 453.204L472.094 460.956L469.184 455.548L488.654 448.1Z" fill="#007CFF"/>
<path d="M471.582 217.586C471.582 217.586 478.477 294.303 483.046 323.046C488.05 354.519 507.706 459.361 507.706 459.361H526.093C526.093 459.361 515.075 357.059 512.995 325.898C510.735 292.077 506.227 217.586 506.227 217.586H471.582Z" fill="#007CFF"/>
<path d="M526.374 454.569C526.452 454.569 526.988 459.708 526.988 459.708H506.779L505.336 453.808L526.374 454.569Z" fill="#007CFF"/>
<g opacity="0.199997">
<g opacity="0.199997">
<path opacity="0.199997" d="M519.329 448.496C519.243 448.496 519.169 448.431 519.16 448.344C519.06 447.413 509.125 355.055 507.255 327.057C505.227 296.675 501.148 229.308 501.107 228.631C501.101 228.536 501.173 228.456 501.267 228.449H501.279C501.367 228.449 501.444 228.52 501.449 228.611C501.489 229.287 505.568 296.653 507.597 327.033C509.467 355.024 519.4 447.377 519.5 448.307C519.511 448.403 519.443 448.485 519.349 448.495C519.341 448.496 519.335 448.496 519.329 448.496Z" fill="black"/>
</g>
</g>
<path d="M482.165 94.0574C482.119 94.8667 481.649 95.524 481.121 95.524C480.592 95.524 480.201 94.8667 480.249 94.0574C480.296 93.248 480.764 92.5907 481.293 92.5907C481.823 92.5907 482.213 93.248 482.165 94.0574Z" fill="#1A2E35"/>
<path d="M473.013 94.0574C472.966 94.8667 472.498 95.524 471.969 95.524C471.44 95.524 471.049 94.8667 471.097 94.0574C471.145 93.248 471.612 92.5907 472.141 92.5907C472.67 92.5907 473.061 93.248 473.013 94.0574Z" fill="#1A2E35"/>
<path d="M475.9 94.4604C475.9 94.4604 473.784 99.131 471.625 101.386C472.98 102.722 475.45 102.111 475.45 102.111L475.9 94.4604Z" fill="#FF5652"/>
<path d="M476.131 105.508C476.001 105.508 475.899 105.401 475.907 105.271C475.915 105.139 476.029 105.032 476.159 105.032C479.714 105.032 481.518 102.549 481.537 102.525C481.615 102.415 481.766 102.384 481.87 102.456C481.975 102.528 481.997 102.675 481.919 102.785C481.839 102.896 479.941 105.508 476.131 105.508Z" fill="#1A2E35"/>
<path d="M483.793 91.5944C483.656 91.6478 483.5 91.6398 483.374 91.5584C481.624 90.4571 479.993 91.1958 479.977 91.2051C479.753 91.3198 479.456 91.2184 479.356 90.9824C479.256 90.7451 479.373 90.4598 479.616 90.3464C479.702 90.3051 481.745 89.3784 483.914 90.7451C484.132 90.8824 484.185 91.1758 484.036 91.3984C483.976 91.4904 483.888 91.5571 483.793 91.5944Z" fill="#1A2E35"/>
<path d="M469.475 88.935C469.409 88.9163 469.346 88.883 469.293 88.8323C469.109 88.659 469.107 88.359 469.293 88.1617C471.155 86.195 473.313 86.495 473.402 86.5083C473.657 86.5363 473.826 86.7883 473.771 87.0483C473.718 87.3083 473.466 87.487 473.21 87.4497C473.138 87.439 471.453 87.2243 469.966 88.7937C469.835 88.9337 469.641 88.983 469.475 88.935Z" fill="#1A2E35"/>
<path d="M519.639 143.423L505.77 139.731C505.77 139.731 492.167 173.207 487.365 175.393C480.829 178.368 464.275 188.656 457.241 193.617C456.851 195.275 457.158 199.697 458.043 200.9C470.003 198.727 493.015 189.88 497.815 185.384C508.757 175.132 519.639 143.423 519.639 143.423Z" fill="#FF8B7B"/>
<path d="M508.592 471.452C508.467 471.452 508.362 471.472 508.28 471.512C508.214 471.545 508.135 471.607 508.115 471.791C508.067 472.169 508.156 472.452 508.386 472.653C508.906 473.117 510.215 473.179 511.939 472.835C510.843 472.179 509.36 471.452 508.592 471.452ZM509.96 473.529C509.198 473.529 508.491 473.399 508.059 473.019C507.716 472.715 507.575 472.292 507.64 471.76C507.688 471.365 507.91 471.177 508.087 471.089C509.22 470.52 512.351 472.508 512.706 472.736C512.783 472.788 512.82 472.883 512.799 472.979C512.779 473.071 512.703 473.147 512.61 473.169C511.902 473.337 510.89 473.529 509.96 473.529Z" fill="#007CFF"/>
<path d="M510.766 469.107C510.731 469.107 510.695 469.111 510.658 469.114C510.347 469.151 510.311 469.295 510.296 469.354C510.131 470.015 511.314 471.678 512.3 472.462C512.234 471.615 512.012 469.926 511.299 469.315C511.136 469.176 510.962 469.107 510.766 469.107ZM512.554 473.176C512.515 473.176 512.475 473.167 512.442 473.148C511.435 472.583 509.556 470.384 509.835 469.264C509.884 469.063 510.055 468.711 510.627 468.642C511.003 468.595 511.335 468.699 511.623 468.947C512.734 469.9 512.803 472.798 512.804 472.919C512.807 473.007 512.76 473.091 512.684 473.136C512.644 473.163 512.599 473.176 512.554 473.176Z" fill="#007CFF"/>
<path d="M472.388 470.286C472.207 470.33 472.063 470.393 471.968 470.477C471.884 470.552 471.853 470.637 471.865 470.758C471.901 471.077 472.039 471.298 472.288 471.433C472.996 471.818 474.64 471.514 476.756 470.629C475.268 470.317 473.324 470.058 472.388 470.286ZM474.556 471.87C473.575 472.108 472.637 472.178 472.041 471.854C471.661 471.648 471.443 471.305 471.393 470.836C471.361 470.557 471.456 470.313 471.664 470.13C472.739 469.173 477.087 470.201 477.581 470.321C477.677 470.345 477.745 470.428 477.749 470.529C477.753 470.63 477.693 470.725 477.599 470.769C476.792 471.137 475.645 471.606 474.556 471.87Z" fill="#007CFF"/>
<path d="M474.402 467.417C474.356 467.427 474.31 467.443 474.264 467.458C473.849 467.603 473.853 467.773 473.854 467.829C473.87 468.517 475.786 469.782 477.14 470.21C476.87 469.474 476.221 467.989 475.272 467.521C474.985 467.379 474.7 467.343 474.402 467.417ZM477.554 470.783C477.521 470.791 477.488 470.791 477.454 470.787C476.162 470.549 473.404 469.014 473.377 467.866C473.372 467.598 473.497 467.23 474.129 467.011C474.588 466.839 475.06 466.874 475.502 467.091C476.95 467.806 477.708 470.366 477.741 470.475C477.764 470.555 477.741 470.642 477.682 470.707C477.649 470.746 477.602 470.773 477.554 470.783Z" fill="#007CFF"/>
<path d="M458.371 192.83L444.467 199.23L442.854 203.154L447.992 206.61C447.992 206.61 457.582 205.567 460.314 199.405L458.371 192.83Z" fill="#FF8B7B"/>
<path d="M458.962 201.128C458.093 195.962 456.394 193.606 456.38 193.582L458.57 191.94C458.657 192.052 460.672 194.773 461.665 200.673L458.962 201.128Z" fill="#1A2E35"/>
<path d="M461.331 194.721C461.781 195.836 461.057 197.181 459.712 197.724C458.367 198.268 456.912 197.805 456.461 196.689C456.011 195.575 456.735 194.229 458.08 193.685C459.424 193.141 460.88 193.605 461.331 194.721Z" fill="#1A2E35"/>
<path d="M435.072 204.398L436.92 206.268L449.394 200.932L444.468 199.23L435.072 204.398Z" fill="#FF8B7B"/>
<g opacity="0.199997">
<g opacity="0.199997">
<path opacity="0.199997" d="M488.654 448.1C488.728 448.07 490.552 453.204 490.552 453.204L472.094 460.956L469.184 455.548L488.654 448.1Z" fill="black"/>
</g>
</g>
<g opacity="0.199997">
<g opacity="0.199997">
<path opacity="0.199997" d="M526.374 454.569C526.452 454.569 526.988 459.708 526.988 459.708H506.779L505.336 453.808L526.374 454.569Z" fill="black"/>
</g>
</g>
<path d="M523.255 139.586C526.925 151.409 512.642 167.559 512.642 167.559L492.845 159.479C492.845 159.479 495.635 150.89 500.943 139.383C506.977 126.303 519.553 127.654 523.255 139.586Z" fill="#007CFF"/>
<g opacity="0.199997">
<g opacity="0.199997">
<path opacity="0.199997" d="M523.255 139.586C526.925 151.409 512.642 167.559 512.642 167.559L492.845 159.479C492.845 159.479 495.635 150.89 500.943 139.383C506.977 126.303 519.553 127.654 523.255 139.586Z" fill="black"/>
</g>
</g>
<path d="M326.5 22.4627H317.984V21.0934H326.5V22.4627Z" fill="#007CFF"/>
<path d="M437.142 98.3862L435.775 98.3249L436.797 75.4449L438.165 75.5075L437.142 98.3862Z" fill="#007CFF"/>
<path d="M434.15 27.2585H276.818L262.172 354.884H419.504L434.15 27.2585Z" fill="#007CFF"/>
<g opacity="0.559998">
<g opacity="0.559998">
<path opacity="0.559998" d="M429.453 31.7546H272.121L257.476 359.38H414.808L429.453 31.7546Z" fill="#FAFAFA"/>
</g>
</g>
<g opacity="0.0700073">
<g opacity="0.0700073">
<path opacity="0.0700073" d="M424.757 36.2501H267.425L252.779 363.875H410.111L424.757 36.2501Z" fill="#007CFF"/>
</g>
</g>
<path d="M406.848 179.141H272.558L271.437 204.217H405.728L406.848 179.141Z" fill="white"/>
<path d="M346.419 160.854H273.375L272.874 172.072H345.918L346.419 160.854Z" fill="#007CFF"/>
<path d="M403.824 246.799H269.534L268.412 271.874H402.703L403.824 246.799Z" fill="white"/>
<g opacity="0.470001">
<g opacity="0.470001">
<path opacity="0.470001" d="M379.198 305.715H288.893L287.549 335.767H377.854L379.198 305.715Z" fill="#007CFF"/>
</g>
</g>
<path d="M283.018 340.104H373.005L374.334 310.37H284.348L283.018 340.104ZM373.157 340.422H282.853C282.81 340.422 282.769 340.404 282.738 340.372C282.709 340.342 282.692 340.299 282.694 340.256L284.038 310.203C284.041 310.119 284.112 310.051 284.196 310.051H374.5C374.544 310.051 374.585 310.071 374.616 310.1C374.645 310.132 374.661 310.175 374.657 310.218L373.316 340.27C373.313 340.355 373.241 340.422 373.157 340.422Z" fill="white"/>
<path d="M330.637 228.512H270.351L269.85 239.73H330.135L330.637 228.512Z" fill="#007CFF"/>
<path d="M377.474 98.1719C377.138 105.68 374.417 112.613 370.055 118.244C363.466 126.781 353.147 132.329 341.789 132.329C330.431 132.329 320.622 126.781 314.797 118.244C310.938 112.613 308.835 105.68 309.171 98.1719C310.015 79.3053 325.99 64.0133 344.842 64.0133C363.71 64.0133 378.318 79.3053 377.474 98.1719Z" fill="white"/>
<path d="M380.687 71.164C380.598 73.1587 379.875 75.0013 378.715 76.4973C376.965 78.7653 374.222 80.24 371.205 80.24C368.186 80.24 365.581 78.7653 364.033 76.4973C363.007 75.0013 362.449 73.1587 362.538 71.164C362.762 66.1507 367.006 62.088 372.017 62.088C377.03 62.088 380.911 66.1507 380.687 71.164Z" fill="#007CFF"/>
<path d="M287.02 191.678C286.921 193.898 285.041 195.697 282.823 195.697C280.604 195.697 278.885 193.898 278.984 191.678C279.083 189.46 280.963 187.661 283.183 187.661C285.401 187.661 287.119 189.46 287.02 191.678Z" fill="#1A2E35"/>
<path d="M305.003 191.678C304.905 193.898 303.025 195.697 300.806 195.697C298.587 195.697 296.869 193.898 296.967 191.678C297.066 189.46 298.946 187.661 301.165 187.661C303.385 187.661 305.102 189.46 305.003 191.678Z" fill="#1A2E35"/>
<path d="M322.986 191.678C322.888 193.898 321.008 195.697 318.789 195.697C316.57 195.697 314.852 193.898 314.95 191.678C315.049 189.46 316.929 187.661 319.148 187.661C321.368 187.661 323.085 189.46 322.986 191.678Z" fill="#1A2E35"/>
<path d="M283.995 259.337C283.897 261.555 282.017 263.354 279.798 263.354C277.579 263.354 275.861 261.555 275.959 259.337C276.059 257.117 277.938 255.318 280.158 255.318C282.377 255.318 284.095 257.117 283.995 259.337Z" fill="#1A2E35"/>
<path d="M301.979 259.337C301.88 261.555 300 263.354 297.781 263.354C295.563 263.354 293.844 261.555 293.943 259.337C294.043 257.117 295.921 255.318 298.141 255.318C300.36 255.318 302.079 257.117 301.979 259.337Z" fill="#1A2E35"/>
<path d="M319.962 259.337C319.863 261.555 317.983 263.354 315.764 263.354C313.546 263.354 311.827 261.555 311.926 259.337C312.026 257.117 313.904 255.318 316.124 255.318C318.343 255.318 320.062 257.117 319.962 259.337Z" fill="#1A2E35"/>
<path d="M337.945 259.337C337.845 261.555 335.967 263.354 333.748 263.354C331.528 263.354 329.809 261.555 329.909 259.337C330.008 257.117 331.888 255.318 334.107 255.318C336.325 255.318 338.044 257.117 337.945 259.337Z" fill="#1A2E35"/>
<path d="M355.927 259.337C355.828 261.555 353.95 263.354 351.731 263.354C349.511 263.354 347.792 261.555 347.892 259.337C347.991 257.117 349.87 255.318 352.09 255.318C354.308 255.318 356.027 257.117 355.927 259.337Z" fill="#1A2E35"/>
<path d="M357.648 86.7545C357.307 94.3852 350.844 100.569 343.216 100.569C335.586 100.569 329.676 94.3852 330.018 86.7545C330.359 79.1252 336.82 72.9399 344.451 72.9399C352.08 72.9399 357.99 79.1252 357.648 86.7545Z" fill="#007CFF"/>
<path d="M370.055 118.244C363.467 126.78 353.147 132.329 341.789 132.329C330.431 132.329 320.621 126.78 314.797 118.244C321.277 111.791 331.536 107.599 342.895 107.599C354.267 107.599 364.149 111.791 370.055 118.244Z" fill="#007CFF"/>
<g opacity="0.100006">
<g opacity="0.100006">
<path opacity="0.100006" d="M357.648 86.7545C357.307 94.3852 350.844 100.569 343.216 100.569C335.586 100.569 329.676 94.3852 330.018 86.7545C330.359 79.1252 336.82 72.9399 344.451 72.9399C352.08 72.9399 357.99 79.1252 357.648 86.7545Z" fill="white"/>
</g>
</g>
<g opacity="0.100006">
<g opacity="0.100006">
<path opacity="0.100006" d="M370.055 118.244C363.467 126.78 353.147 132.329 341.789 132.329C330.431 132.329 320.621 126.78 314.797 118.244C321.277 111.791 331.536 107.599 342.895 107.599C354.267 107.599 364.149 111.791 370.055 118.244Z" fill="white"/>
</g>
</g>
<path d="M173.877 210.257C172.613 213.027 171.285 216.073 170.118 219.045C168.941 222.045 167.768 225.049 166.746 228.093C164.76 234.183 162.896 240.331 161.98 246.493L161.676 248.457C161.653 248.693 161.67 249.029 161.773 249.451C161.969 250.297 162.497 251.431 163.238 252.543C164.74 254.792 166.869 257.069 169.162 259.184C171.453 261.333 173.938 263.387 176.522 265.339C179.081 267.307 181.78 269.233 184.421 271.037L181.936 275.716C175.592 272.944 169.684 269.627 163.961 265.467C161.149 263.321 158.369 261.013 155.908 257.895C154.694 256.321 153.502 254.543 152.721 252.197C152.341 251.027 152.078 249.701 152.077 248.271C152.086 247.941 152.104 247.48 152.126 247.257L152.193 246.595L152.325 245.271C153.05 238.203 154.617 231.409 156.68 224.82C157.718 221.529 158.829 218.272 160.096 215.076C161.389 211.857 162.665 208.769 164.282 205.532L173.877 210.257Z" fill="#FF8B7B"/>
<path d="M182.551 270.244L191.973 265.464L189.539 275.82C189.539 275.82 183.07 277.625 180.061 274.486L182.551 270.244Z" fill="#FF8B7B"/>
<path d="M200.602 267.163L198.095 275.723L189.539 275.819L191.974 265.464L200.602 267.163Z" fill="#FF8B7B"/>
<path d="M213.91 160.335C213.91 160.335 214.727 163.341 216.023 165.607C214.91 166.646 213.91 166.285 213.91 166.285V160.335Z" fill="#FF5652"/>
<path d="M212.632 158.885C212.632 159.729 213.079 160.413 213.631 160.413C214.183 160.413 214.629 159.729 214.629 158.885C214.629 158.041 214.183 157.357 213.631 157.357C213.079 157.357 212.632 158.041 212.632 158.885Z" fill="#1A2E35"/>
<path d="M213.387 157.404L215.414 156.82C215.414 156.82 214.374 158.404 213.387 157.404Z" fill="#1A2E35"/>
<path d="M187.863 170.115C189.08 176.321 190.293 187.695 185.951 191.837C185.951 191.837 187.648 198.133 199.181 198.133C211.864 198.133 205.243 191.837 205.243 191.837C198.321 190.184 198.5 185.049 199.705 180.225L187.863 170.115Z" fill="#FF8B7B"/>
<path d="M184.497 155.989C185.133 166.352 185.181 170.75 190.414 176.069C198.287 184.07 210.875 181.022 213.347 170.678C215.574 161.369 214.159 145.988 204.017 141.862C194.023 137.8 183.861 145.628 184.497 155.989Z" fill="#FF8B7B"/>
<path d="M185.518 144.264C180.322 146.159 173.39 144.75 176.11 160.788C178.99 177.77 174.557 183.356 174.557 183.356C174.557 183.356 194.28 187.558 214.413 183.106C214.413 183.106 208.266 172.355 209.99 164.512C212.19 154.508 210.448 150.811 210.448 150.811C210.448 150.811 192.826 141.6 185.518 144.264Z" fill="#1A2E35"/>
<path d="M207.52 161.39C207.499 163.443 208.219 165.511 209.152 166.947C210.557 169.11 212.223 168.229 212.64 165.986C213.016 163.967 212.737 160.41 210.939 159.03C209.167 157.671 207.545 159.042 207.52 161.39Z" fill="#FF8B7B"/>
<path d="M181.005 146.078C179.505 141.885 186.631 135.435 201.695 138.118C216.757 140.801 217.419 153.329 217.419 153.329L214.371 149.711L214.507 153.521L199.027 156.495L181.005 146.078Z" fill="#1A2E35"/>
<path d="M182.282 192.541C182.074 191.261 182.935 190.053 184.215 189.842C188.907 189.068 199.567 187.498 204.934 188.242C208.921 188.794 209.975 191.124 210.143 193.026C210.269 194.438 209.101 195.628 207.686 195.565L184.501 194.517C183.386 194.466 182.461 193.642 182.282 192.541Z" fill="#007CFF"/>
<g opacity="0.600006">
<g opacity="0.600006">
<path opacity="0.600006" d="M182.282 192.541C182.074 191.261 182.935 190.053 184.215 189.842C188.907 189.068 199.567 187.498 204.934 188.242C208.921 188.794 209.975 191.124 210.143 193.026C210.269 194.438 209.101 195.628 207.686 195.565L184.501 194.517C183.386 194.466 182.461 193.642 182.282 192.541Z" fill="black"/>
</g>
</g>
<path d="M195.68 425.482L204.274 431.448L218.662 411.947L210.07 405.982L195.68 425.482Z" fill="#FF8B7B"/>
<path d="M175.62 425.089L184.71 430.265L197.446 409.641L188.356 404.463L175.62 425.089Z" fill="#FF8B7B"/>
<path d="M218.656 411.952L211.242 422.004L202.646 416.036L210.06 405.983L218.656 411.952Z" fill="#EA7064"/>
<path d="M188.35 404.469L197.444 409.647L190.876 420.274L181.781 415.097L188.35 404.469Z" fill="#EA7064"/>
<path d="M202.93 257.651C202.93 257.651 236.505 299.964 230.206 340.427C225.118 373.11 195.656 417.364 195.656 417.364L181.802 410.479C181.802 410.479 196.854 381.068 206.737 349.891C210.882 336.816 209.116 322.411 201.366 311.094C184.36 286.254 157.113 301.034 175.441 257.651H202.93Z" fill="#007CFF"/>
<g opacity="0.600006">
<g opacity="0.600006">
<path opacity="0.600006" d="M202.93 257.651C202.93 257.651 236.505 299.964 230.206 340.427C225.118 373.11 195.656 417.364 195.656 417.364L181.802 410.479C181.802 410.479 196.854 381.068 206.737 349.891C210.882 336.816 209.116 322.411 201.366 311.094C184.36 286.254 157.113 301.034 175.441 257.651H202.93Z" fill="black"/>
</g>
</g>
<g opacity="0.399994">
<g opacity="0.399994">
<path opacity="0.399994" d="M219.399 284.84L214.52 279.989C214.52 280.373 223.975 338.728 226.634 355.129C228.236 350.1 229.47 345.141 230.21 340.427C233.292 320.615 226.811 300.351 219.399 284.84Z" fill="black"/>
</g>
</g>
<path d="M217.926 257.651C217.926 257.651 258.35 310.824 259.487 342.711C260.44 369.428 215.454 421.038 215.454 421.038L202.394 412.588C202.394 412.588 228.699 375.899 235.32 345.907C232.795 316.222 178.599 257.651 178.599 257.651H217.926Z" fill="#007CFF"/>
<g opacity="0.600006">
<g opacity="0.600006">
<path opacity="0.600006" d="M217.926 257.651C217.926 257.651 258.35 310.824 259.487 342.711C260.44 369.428 215.454 421.038 215.454 421.038L202.394 412.588C202.394 412.588 228.699 375.899 235.32 345.907C232.795 316.222 178.599 257.651 178.599 257.651H217.926Z" fill="black"/>
</g>
</g>
<path d="M167.91 194.214C163.581 195.235 159.443 210.951 159.443 210.951L176.327 222.222C176.327 222.222 181.954 209.8 179.99 204.359C177.943 198.692 173.378 192.924 167.91 194.214Z" fill="#007CFF"/>
<g opacity="0.199997">
<g opacity="0.199997">
<path opacity="0.199997" d="M171.215 204.326L170.035 218.018L176.321 222.224C176.321 222.224 179.267 215.716 180.144 210.044L171.215 204.326Z" fill="black"/>
</g>
</g>
<path d="M222.925 194.516C222.925 194.516 227.907 196.272 217.926 257.651H175.442C176.154 240.36 176.174 229.699 167.91 194.214C167.91 194.214 176.813 192.276 185.951 191.836C193.101 191.492 198.958 191.264 205.242 191.838C213.529 192.594 222.925 194.516 222.925 194.516Z" fill="#007CFF"/>
<path d="M227.239 204.263C228.202 206.924 229.219 209.8 230.279 212.564C231.296 215.368 232.354 218.166 233.443 220.954L236.711 229.328L237.539 231.422L237.954 232.468L238.162 232.991C238.198 233.086 238.19 233.076 238.178 233.067C238.12 233.042 238.071 232.778 237.244 232.235C236.839 231.983 236.159 231.74 235.503 231.727C234.843 231.703 234.319 231.863 234.02 231.995C233.419 232.282 233.41 232.404 233.423 232.386C233.462 232.366 233.586 232.247 233.722 232.083C234.304 231.383 235.008 230.176 235.627 228.976C236.258 227.752 236.852 226.446 237.447 225.122C238.627 222.463 239.7 219.691 240.792 216.912C241.872 214.127 242.89 211.302 243.898 208.466L246.934 199.956L252.071 201.252C251.054 207.339 249.74 213.3 248.174 219.283C247.408 222.28 246.523 225.254 245.511 228.254C245.007 229.756 244.442 231.255 243.795 232.783C243.12 234.323 242.454 235.84 241.26 237.606C240.948 238.052 240.592 238.523 240.098 239.043C239.574 239.555 238.97 240.175 237.668 240.76C237.02 241.038 236.119 241.286 235.079 241.243C234.044 241.214 232.994 240.847 232.267 240.396C230.788 239.452 230.278 238.554 229.842 237.878C229.638 237.54 229.464 237.19 229.346 236.938L229.092 236.422L228.587 235.387L227.578 233.316C226.262 230.542 224.971 227.752 223.747 224.931C222.536 222.104 221.356 219.263 220.211 216.398C219.116 213.49 218.034 210.672 217.071 207.579L227.239 204.263Z" fill="#FF8B7B"/>
<path d="M222.925 194.516C228.031 195.734 233.769 210.82 233.769 210.82L218.593 223.752C218.593 223.752 208.758 207.3 210.747 201.868C212.818 196.211 216.254 192.927 222.925 194.516Z" fill="#007CFF"/>
<path d="M249.301 195.253L254.627 190.798L258.331 196.57L255.602 201.39C255.602 201.39 251.255 205.367 247.407 203.345C246.167 200.526 246.939 197.227 249.301 195.253Z" fill="#FF8B7B"/>
<path d="M264.296 190.811L263.897 192.262L255.46 193.679L254.628 190.798L264.296 190.811Z" fill="#FF8B7B"/>
<path d="M216.536 421.738L201.312 411.889L204.037 407.149L221.148 417.666L216.536 421.738Z" fill="#007CFF"/>
<path d="M187.646 428.113C189.302 428.956 190.635 429.267 191.277 428.948C191.549 428.811 191.707 428.557 191.761 428.169C191.789 427.961 191.715 427.868 191.646 427.812C191.11 427.36 189.107 427.712 187.646 428.113ZM190.645 429.568C189.434 429.568 187.841 428.8 186.875 428.263C186.789 428.215 186.739 428.12 186.75 428.021C186.758 427.923 186.827 427.84 186.921 427.809C187.331 427.68 190.943 426.573 191.966 427.432C192.127 427.569 192.307 427.819 192.25 428.236C192.175 428.791 191.923 429.18 191.498 429.391C191.253 429.515 190.962 429.568 190.645 429.568Z" fill="#1A2E35"/>
<path d="M189.581 424.658C189.458 424.658 189.334 424.687 189.209 424.747C188.393 425.14 187.707 426.704 187.379 427.654C188.553 427.16 190.155 425.852 190.213 425.122C190.221 425.003 190.194 424.848 189.901 424.726C189.794 424.68 189.686 424.658 189.581 424.658ZM186.995 428.295C186.929 428.295 186.865 428.267 186.818 428.219C186.755 428.155 186.733 428.064 186.757 427.979C186.793 427.856 187.625 424.962 188.994 424.3C189.358 424.127 189.729 424.116 190.091 424.267C190.669 424.51 190.725 424.931 190.706 425.16C190.611 426.359 188.169 428.015 187.054 428.287C187.035 428.292 187.015 428.295 186.995 428.295" fill="#1A2E35"/>
<path d="M205.828 432.393C207.513 434.032 208.987 434.937 209.832 434.824C210.128 434.788 210.352 434.628 210.519 434.335C210.583 434.223 210.588 434.125 210.536 434.023C210.18 433.309 207.704 432.695 205.828 432.393ZM209.691 435.329C208.189 435.329 206.096 433.4 204.951 432.213C204.877 432.139 204.86 432.025 204.907 431.931C204.955 431.837 205.075 431.784 205.16 431.796C205.687 431.864 210.324 432.489 210.98 433.8C211.105 434.052 211.095 434.323 210.949 434.58C210.704 435.012 210.348 435.259 209.893 435.317C209.828 435.325 209.76 435.329 209.691 435.329Z" fill="#1A2E35"/>
<path d="M205.63 431.852C207.12 431.934 209.501 431.44 209.812 430.79C209.838 430.736 209.917 430.572 209.573 430.274C209.285 430.029 208.952 429.926 208.566 429.961C207.446 430.06 206.198 431.248 205.63 431.852ZM205.974 432.352C205.632 432.352 205.325 432.33 205.084 432.285C204.997 432.269 204.926 432.209 204.896 432.128C204.866 432.045 204.881 431.952 204.937 431.884C205.014 431.792 206.817 429.617 208.522 429.468C209.056 429.426 209.506 429.568 209.893 429.898C210.418 430.348 210.381 430.748 210.258 431.002C209.836 431.892 207.532 432.352 205.974 432.352Z" fill="#1A2E35"/>
<path d="M187.362 426.891L176.053 423.695C175.641 423.577 175.226 423.769 175.055 424.153L171.238 432.737C170.842 433.628 171.391 434.732 172.346 434.984C176.307 436.029 178.273 436.336 183.246 437.743C186.306 438.607 190.686 440.188 194.911 441.383C199.043 442.551 200.542 438.463 198.89 437.587C191.481 433.66 190.895 430.969 188.869 427.985C188.503 427.447 187.963 427.061 187.362 426.891Z" fill="#007CFF"/>
<path d="M205.258 430.658L195.605 423.955C195.254 423.711 194.8 423.758 194.512 424.067L188.109 430.94C187.445 431.654 187.606 432.876 188.426 433.424C191.832 435.703 193.592 436.631 197.836 439.579C200.448 441.392 205.662 445.414 209.268 447.918C212.796 450.367 215.542 446.99 214.265 445.624C208.537 439.5 207.273 435.663 206.328 432.183C206.157 431.555 205.773 431.015 205.258 430.658Z" fill="#007CFF"/>
<path d="M197.433 418.247L180.025 409.595L181.826 404.886L200.408 413.994L197.433 418.247Z" fill="#007CFF"/>
<path d="M174.805 255.158L173.333 258.96C173.184 259.256 173.533 259.556 174.024 259.556H218.136C218.519 259.556 218.836 259.37 218.86 259.128L219.244 255.326C219.269 255.062 218.937 254.839 218.519 254.839H175.497C175.181 254.839 174.901 254.968 174.805 255.158Z" fill="#007CFF"/>
<g opacity="0.399994">
<g opacity="0.399994">
<path opacity="0.399994" d="M174.805 255.158L173.333 258.96C173.184 259.256 173.533 259.556 174.024 259.556H218.136C218.519 259.556 218.836 259.37 218.86 259.128L219.244 255.326C219.269 255.062 218.937 254.839 218.519 254.839H175.497C175.181 254.839 174.901 254.968 174.805 255.158Z" fill="white"/>
</g>
</g>
<path d="M181.743 259.968H180.591C180.361 259.968 180.187 259.851 180.202 259.706L180.743 254.766C180.759 254.62 180.959 254.502 181.189 254.502H182.341C182.571 254.502 182.745 254.62 182.73 254.766L182.189 259.706C182.173 259.851 181.973 259.968 181.743 259.968Z" fill="#007CFF"/>
<path d="M208.952 259.968H207.8C207.571 259.968 207.396 259.851 207.412 259.706L207.952 254.766C207.968 254.62 208.168 254.502 208.397 254.502H209.551C209.78 254.502 209.955 254.62 209.939 254.766L209.397 259.706C209.383 259.851 209.181 259.968 208.952 259.968Z" fill="#007CFF"/>
<path d="M145.007 483.189C144.942 484.62 160.882 485.781 180.61 485.782C200.338 485.784 216.385 484.624 216.45 483.193C216.515 481.761 200.577 480.6 180.847 480.598C161.119 480.597 145.073 481.757 145.007 483.189Z" fill="#F5F5F5"/>
<path d="M202.497 479.534C196.177 477.699 189.221 475.335 184.917 472.821C184.798 472.751 184.671 472.701 184.55 472.637V444.066H197.261C199.363 444.066 201.067 442.362 201.067 440.261C201.067 438.158 199.363 436.454 197.261 436.454H184.55V306.023H176.938V436.454H164.225C162.123 436.454 160.419 438.158 160.419 440.261C160.419 442.362 162.123 444.066 164.225 444.066H176.938V472.637C176.815 472.701 176.689 472.751 176.569 472.821C172.265 475.335 165.31 477.699 158.989 479.534C156.915 480.135 157.353 483.189 159.513 483.189H180.743H201.974C204.134 483.189 204.571 480.135 202.497 479.534" fill="#E1E1E1"/>
<path d="M204.453 320.663H157.033C153.234 320.663 150.126 317.555 150.126 313.755V299.659C150.126 295.859 153.234 292.751 157.033 292.751H204.453C208.252 292.751 211.36 295.859 211.36 299.659V313.755C211.36 317.555 208.252 320.663 204.453 320.663Z" fill="#007CFF"/>
<path d="M156.597 320.663V323.088C156.597 325.089 158.774 326.725 161.434 326.725H200.052C202.712 326.725 204.889 325.089 204.889 323.088V320.663H156.597Z" fill="#007CFF"/>
<g opacity="0.300003">
<g opacity="0.300003">
<path opacity="0.300003" d="M156.597 320.663V323.088C156.597 325.089 158.774 326.725 161.434 326.725H200.052C202.712 326.725 204.889 325.089 204.889 323.088V320.663H156.597Z" fill="white"/>
</g>
</g>
</svg>
